<svg width="29" height="29" viewBox="0 0 29 29" fill="none" xmlns="http://www.w3.org/2000/svg">
<path fill-rule="evenodd" clip-rule="evenodd" d="M5.36026 15.1909C5.22719 15.0151 5.16082 14.8058 5.16113 14.5965C5.16079 14.373 5.23656 14.1494 5.38842 13.9667C5.43224 13.912 5.48161 13.862 5.53568 13.8175L11.6547 7.78518C12.048 7.39745 12.6857 7.39745 13.079 7.78518L13.0984 7.80432C13.4917 8.19205 13.4917 8.82068 13.0984 9.20841L8.65301 13.5908H22.5417C23.094 13.5908 23.5417 14.0449 23.5417 14.5972C23.5417 15.1495 23.094 15.6036 22.5417 15.6036H8.65435L13.1986 20.0834C13.5919 20.4712 13.5919 21.0998 13.1986 21.4875L13.1792 21.5067C12.7859 21.8944 12.1482 21.8944 11.7549 21.5067L5.5434 15.3831C5.47429 15.3275 5.41266 15.2628 5.36026 15.1909Z" fill="#0B7972"/>
</svg>
