<svg width="34" height="21" viewBox="0 0 34 21" fill="none" xmlns="http://www.w3.org/2000/svg">
<path fill-rule="evenodd" clip-rule="evenodd" d="M12.3087 0.155273C12.0632 0.155273 11.8263 0.245575 11.6431 0.408978L1.16544 9.75388C0.719593 10.1515 0.719593 10.8488 1.16544 11.2465L11.6431 20.5914C11.8263 20.7548 12.0632 20.8451 12.3087 20.8451H32.1681C32.7204 20.8451 33.1681 20.3974 33.1681 19.8451V1.15527C33.1681 0.602989 32.7204 0.155273 32.1681 0.155273H12.3087ZM24.6846 6.00976L26.2545 7.57974L23.3108 10.5234L26.2539 13.4665L24.6839 15.0365L21.7409 12.0934L18.7972 15.0371L17.2272 13.4671L20.1709 10.5234L17.2266 7.57911L18.7965 6.00913L21.7409 8.95347L24.6846 6.00976Z" fill="#6E7473"/>
</svg>
